<mxfile host="app.diagrams.net" modified="2021-12-06T11:55:57.746Z" agent="5.0 (Windows NT 10.0; Win64; x64) AppleWebKit/537.36 (KHTML, like Gecko) Chrome/96.0.4664.55 Safari/537.36 Edg/96.0.1054.43" etag="_eO_JqIwzFcgbjANMnHD" version="15.9.1" type="github">
  <diagram id="IViaiXuKfdN6oU4mYsDB" name="Page-1">
    <mxGraphModel dx="449" dy="306" grid="1" gridSize="10" guides="1" tooltips="1" connect="1" arrows="1" fold="1" page="1" pageScale="1" pageWidth="827" pageHeight="1169" math="0" shadow="0">
      <root>
        <mxCell id="0" />
        <mxCell id="1" parent="0" />
        <mxCell id="L8jR0FgZHhtiS3Amrs27-19" value="" style="triangle;whiteSpace=wrap;html=1;fontFamily=Helvetica;fontSize=12;fontColor=rgb(0, 0, 0);align=center;strokeColor=rgb(0, 0, 0);fillColor=rgb(255, 255, 255);rotation=-90;dashed=1;" vertex="1" parent="1">
          <mxGeometry x="490" y="260" width="280" height="240" as="geometry" />
        </mxCell>
        <mxCell id="L8jR0FgZHhtiS3Amrs27-30" value="" style="endArrow=none;dashed=1;html=1;rounded=0;entryX=1;entryY=0.5;entryDx=0;entryDy=0;exitX=0.733;exitY=0.965;exitDx=0;exitDy=0;exitPerimeter=0;" edge="1" parent="1" source="L8jR0FgZHhtiS3Amrs27-21" target="L8jR0FgZHhtiS3Amrs27-19">
          <mxGeometry width="50" height="50" relative="1" as="geometry">
            <mxPoint x="780" y="270" as="sourcePoint" />
            <mxPoint x="830" y="220" as="targetPoint" />
          </mxGeometry>
        </mxCell>
        <mxCell id="L8jR0FgZHhtiS3Amrs27-29" value="" style="endArrow=none;dashed=1;html=1;rounded=0;entryX=1;entryY=0.5;entryDx=0;entryDy=0;exitX=0.265;exitY=0.926;exitDx=0;exitDy=0;exitPerimeter=0;" edge="1" parent="1" source="L8jR0FgZHhtiS3Amrs27-22" target="L8jR0FgZHhtiS3Amrs27-19">
          <mxGeometry width="50" height="50" relative="1" as="geometry">
            <mxPoint x="470" y="300" as="sourcePoint" />
            <mxPoint x="520" y="250" as="targetPoint" />
          </mxGeometry>
        </mxCell>
        <mxCell id="L8jR0FgZHhtiS3Amrs27-16" value="" style="ellipse;whiteSpace=wrap;html=1;aspect=fixed;strokeColor=#23445d;strokeWidth=1;opacity=80;fillColor=#bac8d3;" vertex="1" parent="1">
          <mxGeometry x="172.94" y="594" width="134" height="134" as="geometry" />
        </mxCell>
        <mxCell id="L8jR0FgZHhtiS3Amrs27-2" value="" style="fontColor=#0066CC;verticalAlign=top;verticalLabelPosition=bottom;labelPosition=center;align=center;html=1;outlineConnect=0;fillColor=#CCCCCC;strokeColor=#6881B3;gradientColor=none;gradientDirection=north;strokeWidth=2;shape=mxgraph.networks.satellite;rotation=-45;" vertex="1" parent="1">
          <mxGeometry x="210.44" y="166" width="59" height="59" as="geometry" />
        </mxCell>
        <mxCell id="L8jR0FgZHhtiS3Amrs27-3" value="" style="triangle;whiteSpace=wrap;html=1;fontFamily=Helvetica;fontSize=12;fontColor=rgb(0, 0, 0);align=center;strokeColor=rgb(0, 0, 0);fillColor=rgb(255, 255, 255);rotation=-90;dashed=1;" vertex="1" parent="1">
          <mxGeometry x="100" y="260" width="280" height="240" as="geometry" />
        </mxCell>
        <mxCell id="L8jR0FgZHhtiS3Amrs27-5" value="" style="endArrow=none;html=1;rounded=0;" edge="1" parent="1">
          <mxGeometry width="50" height="50" relative="1" as="geometry">
            <mxPoint y="520" as="sourcePoint" />
            <mxPoint x="480" y="520" as="targetPoint" />
          </mxGeometry>
        </mxCell>
        <mxCell id="L8jR0FgZHhtiS3Amrs27-8" value="" style="verticalLabelPosition=bottom;verticalAlign=top;html=1;shape=mxgraph.basic.partConcEllipse;startAngle=0.38984182155159774;endAngle=0.6101884475509456;arcWidth=0.07;fillColor=#bac8d3;strokeColor=#000000;opacity=80;" vertex="1" parent="1">
          <mxGeometry x="58" y="225" width="363.89" height="306" as="geometry" />
        </mxCell>
        <mxCell id="L8jR0FgZHhtiS3Amrs27-9" value="" style="verticalLabelPosition=bottom;verticalAlign=top;html=1;shape=mxgraph.basic.partConcEllipse;startAngle=0.3807225306214531;endAngle=0.6171051725454009;arcWidth=0.07;fillColor=#f5f5f5;strokeColor=#666666;strokeWidth=1;opacity=80;fontColor=#333333;" vertex="1" parent="1">
          <mxGeometry x="58" y="260" width="363.89" height="281" as="geometry" />
        </mxCell>
        <mxCell id="L8jR0FgZHhtiS3Amrs27-10" value="" style="verticalLabelPosition=bottom;verticalAlign=top;html=1;shape=mxgraph.basic.donut;dx=27.07;strokeColor=#666666;strokeWidth=1;opacity=80;fillColor=#f5f5f5;fontColor=#333333;" vertex="1" parent="1">
          <mxGeometry x="145" y="566" width="190" height="190" as="geometry" />
        </mxCell>
        <mxCell id="L8jR0FgZHhtiS3Amrs27-11" value="" style="endArrow=none;dashed=1;html=1;rounded=0;entryX=0.239;entryY=0.928;entryDx=0;entryDy=0;entryPerimeter=0;" edge="1" parent="1">
          <mxGeometry width="50" height="50" relative="1" as="geometry">
            <mxPoint x="145" y="660" as="sourcePoint" />
            <mxPoint x="144.96970999999996" y="518.768" as="targetPoint" />
          </mxGeometry>
        </mxCell>
        <mxCell id="L8jR0FgZHhtiS3Amrs27-12" value="" style="endArrow=none;dashed=1;html=1;rounded=0;entryX=0.239;entryY=0.928;entryDx=0;entryDy=0;entryPerimeter=0;" edge="1" parent="1">
          <mxGeometry width="50" height="50" relative="1" as="geometry">
            <mxPoint x="172" y="660" as="sourcePoint" />
            <mxPoint x="171.96970999999996" y="518.768" as="targetPoint" />
          </mxGeometry>
        </mxCell>
        <mxCell id="L8jR0FgZHhtiS3Amrs27-13" value="" style="endArrow=none;dashed=1;html=1;rounded=0;entryX=0.239;entryY=0.928;entryDx=0;entryDy=0;entryPerimeter=0;" edge="1" parent="1">
          <mxGeometry width="50" height="50" relative="1" as="geometry">
            <mxPoint x="240" y="660" as="sourcePoint" />
            <mxPoint x="239.65970999999996" y="517.998" as="targetPoint" />
          </mxGeometry>
        </mxCell>
        <mxCell id="L8jR0FgZHhtiS3Amrs27-14" value="" style="endArrow=none;dashed=1;html=1;rounded=0;entryX=0.239;entryY=0.928;entryDx=0;entryDy=0;entryPerimeter=0;" edge="1" parent="1">
          <mxGeometry width="50" height="50" relative="1" as="geometry">
            <mxPoint x="308" y="660" as="sourcePoint" />
            <mxPoint x="307.99970999999994" y="517.998" as="targetPoint" />
          </mxGeometry>
        </mxCell>
        <mxCell id="L8jR0FgZHhtiS3Amrs27-15" value="" style="endArrow=none;dashed=1;html=1;rounded=0;entryX=0.239;entryY=0.928;entryDx=0;entryDy=0;entryPerimeter=0;" edge="1" parent="1">
          <mxGeometry width="50" height="50" relative="1" as="geometry">
            <mxPoint x="335" y="670" as="sourcePoint" />
            <mxPoint x="334.99970999999994" y="517.998" as="targetPoint" />
          </mxGeometry>
        </mxCell>
        <mxCell id="L8jR0FgZHhtiS3Amrs27-18" value="" style="fontColor=#0066CC;verticalAlign=top;verticalLabelPosition=bottom;labelPosition=center;align=center;html=1;outlineConnect=0;fillColor=#CCCCCC;strokeColor=#6881B3;gradientColor=none;gradientDirection=north;strokeWidth=2;shape=mxgraph.networks.satellite;rotation=-45;" vertex="1" parent="1">
          <mxGeometry x="600.44" y="166" width="59" height="59" as="geometry" />
        </mxCell>
        <mxCell id="L8jR0FgZHhtiS3Amrs27-20" value="" style="endArrow=none;html=1;rounded=0;" edge="1" parent="1">
          <mxGeometry width="50" height="50" relative="1" as="geometry">
            <mxPoint x="390" y="520" as="sourcePoint" />
            <mxPoint x="870" y="520" as="targetPoint" />
          </mxGeometry>
        </mxCell>
        <mxCell id="L8jR0FgZHhtiS3Amrs27-21" value="" style="verticalLabelPosition=bottom;verticalAlign=top;html=1;shape=mxgraph.basic.partConcEllipse;startAngle=0.38984182155159774;endAngle=0.6101884475509456;arcWidth=0.07;fillColor=#bac8d3;strokeColor=#000000;opacity=80;" vertex="1" parent="1">
          <mxGeometry x="448" y="225" width="363.89" height="306" as="geometry" />
        </mxCell>
        <mxCell id="L8jR0FgZHhtiS3Amrs27-22" value="" style="verticalLabelPosition=bottom;verticalAlign=top;html=1;shape=mxgraph.basic.partConcEllipse;startAngle=0.3807225306214531;endAngle=0.6171051725454009;arcWidth=0.07;fillColor=#f5f5f5;strokeColor=#666666;strokeWidth=1;opacity=80;fontColor=#333333;" vertex="1" parent="1">
          <mxGeometry x="448" y="260" width="363.89" height="281" as="geometry" />
        </mxCell>
        <mxCell id="L8jR0FgZHhtiS3Amrs27-23" value="" style="verticalLabelPosition=bottom;verticalAlign=top;html=1;shape=mxgraph.basic.donut;dx=27.07;strokeWidth=1;opacity=80;" vertex="1" parent="1">
          <mxGeometry x="535" y="566" width="190" height="190" as="geometry" />
        </mxCell>
        <mxCell id="L8jR0FgZHhtiS3Amrs27-24" value="" style="endArrow=none;dashed=1;html=1;rounded=0;entryX=0.239;entryY=0.928;entryDx=0;entryDy=0;entryPerimeter=0;" edge="1" parent="1">
          <mxGeometry width="50" height="50" relative="1" as="geometry">
            <mxPoint x="545" y="770" as="sourcePoint" />
            <mxPoint x="544.9697099999998" y="518.768" as="targetPoint" />
          </mxGeometry>
        </mxCell>
        <mxCell id="L8jR0FgZHhtiS3Amrs27-25" value="" style="endArrow=none;dashed=1;html=1;rounded=0;entryX=0.239;entryY=0.928;entryDx=0;entryDy=0;entryPerimeter=0;" edge="1" parent="1">
          <mxGeometry width="50" height="50" relative="1" as="geometry">
            <mxPoint x="581" y="770" as="sourcePoint" />
            <mxPoint x="580.9697099999998" y="518.768" as="targetPoint" />
          </mxGeometry>
        </mxCell>
        <mxCell id="L8jR0FgZHhtiS3Amrs27-27" value="" style="endArrow=none;dashed=1;html=1;rounded=0;entryX=0.239;entryY=0.928;entryDx=0;entryDy=0;entryPerimeter=0;" edge="1" parent="1">
          <mxGeometry width="50" height="50" relative="1" as="geometry">
            <mxPoint x="676" y="770" as="sourcePoint" />
            <mxPoint x="675.9997099999998" y="517.998" as="targetPoint" />
          </mxGeometry>
        </mxCell>
        <mxCell id="L8jR0FgZHhtiS3Amrs27-28" value="" style="endArrow=none;dashed=1;html=1;rounded=0;entryX=0.239;entryY=0.928;entryDx=0;entryDy=0;entryPerimeter=0;" edge="1" parent="1">
          <mxGeometry width="50" height="50" relative="1" as="geometry">
            <mxPoint x="714" y="770" as="sourcePoint" />
            <mxPoint x="713.99971" y="518.998" as="targetPoint" />
          </mxGeometry>
        </mxCell>
        <mxCell id="L8jR0FgZHhtiS3Amrs27-31" value="" style="endArrow=none;dashed=1;html=1;rounded=0;entryX=1;entryY=0.5;entryDx=0;entryDy=0;exitX=0.626;exitY=0.965;exitDx=0;exitDy=0;exitPerimeter=0;" edge="1" parent="1" source="L8jR0FgZHhtiS3Amrs27-21" target="L8jR0FgZHhtiS3Amrs27-19">
          <mxGeometry width="50" height="50" relative="1" as="geometry">
            <mxPoint x="760" y="280" as="sourcePoint" />
            <mxPoint x="630" y="240" as="targetPoint" />
          </mxGeometry>
        </mxCell>
        <mxCell id="L8jR0FgZHhtiS3Amrs27-32" value="" style="endArrow=none;dashed=1;html=1;rounded=0;exitX=0.365;exitY=0.963;exitDx=0;exitDy=0;exitPerimeter=0;" edge="1" parent="1" source="L8jR0FgZHhtiS3Amrs27-21">
          <mxGeometry width="50" height="50" relative="1" as="geometry">
            <mxPoint x="740" y="330" as="sourcePoint" />
            <mxPoint x="630" y="240" as="targetPoint" />
          </mxGeometry>
        </mxCell>
        <mxCell id="L8jR0FgZHhtiS3Amrs27-33" value="" style="endArrow=none;dashed=1;html=1;rounded=0;exitX=0.546;exitY=0.969;exitDx=0;exitDy=0;exitPerimeter=0;" edge="1" parent="1" source="L8jR0FgZHhtiS3Amrs27-21">
          <mxGeometry width="50" height="50" relative="1" as="geometry">
            <mxPoint x="720" y="310" as="sourcePoint" />
            <mxPoint x="630" y="240" as="targetPoint" />
          </mxGeometry>
        </mxCell>
        <mxCell id="L8jR0FgZHhtiS3Amrs27-34" value="" style="endArrow=none;dashed=1;html=1;rounded=0;exitX=0.447;exitY=0.968;exitDx=0;exitDy=0;exitPerimeter=0;" edge="1" parent="1" source="L8jR0FgZHhtiS3Amrs27-21">
          <mxGeometry width="50" height="50" relative="1" as="geometry">
            <mxPoint x="700" y="310" as="sourcePoint" />
            <mxPoint x="630" y="240" as="targetPoint" />
          </mxGeometry>
        </mxCell>
        <mxCell id="L8jR0FgZHhtiS3Amrs27-35" value="" style="endArrow=none;html=1;rounded=0;" edge="1" parent="1">
          <mxGeometry width="50" height="50" relative="1" as="geometry">
            <mxPoint x="500" y="770" as="sourcePoint" />
            <mxPoint x="760" y="770" as="targetPoint" />
          </mxGeometry>
        </mxCell>
        <mxCell id="L8jR0FgZHhtiS3Amrs27-36" value="" style="endArrow=none;dashed=1;html=1;rounded=0;entryX=0.239;entryY=0.928;entryDx=0;entryDy=0;entryPerimeter=0;" edge="1" parent="1">
          <mxGeometry width="50" height="50" relative="1" as="geometry">
            <mxPoint x="611" y="770" as="sourcePoint" />
            <mxPoint x="610.9697099999998" y="519.768" as="targetPoint" />
          </mxGeometry>
        </mxCell>
        <mxCell id="L8jR0FgZHhtiS3Amrs27-37" value="" style="endArrow=none;dashed=1;html=1;rounded=0;entryX=0.239;entryY=0.928;entryDx=0;entryDy=0;entryPerimeter=0;" edge="1" parent="1">
          <mxGeometry width="50" height="50" relative="1" as="geometry">
            <mxPoint x="647" y="770" as="sourcePoint" />
            <mxPoint x="646.9997099999998" y="519.998" as="targetPoint" />
          </mxGeometry>
        </mxCell>
        <mxCell id="L8jR0FgZHhtiS3Amrs27-38" value="" style="endArrow=none;dashed=1;html=1;dashPattern=1 3;strokeWidth=2;rounded=0;" edge="1" parent="1">
          <mxGeometry width="50" height="50" relative="1" as="geometry">
            <mxPoint x="520" y="566" as="sourcePoint" />
            <mxPoint x="740" y="566" as="targetPoint" />
          </mxGeometry>
        </mxCell>
        <mxCell id="L8jR0FgZHhtiS3Amrs27-39" value="" style="endArrow=none;dashed=1;html=1;dashPattern=1 3;strokeWidth=2;rounded=0;" edge="1" parent="1">
          <mxGeometry width="50" height="50" relative="1" as="geometry">
            <mxPoint x="520" y="593" as="sourcePoint" />
            <mxPoint x="740" y="593" as="targetPoint" />
          </mxGeometry>
        </mxCell>
        <mxCell id="L8jR0FgZHhtiS3Amrs27-40" value="" style="endArrow=none;dashed=1;html=1;dashPattern=1 3;strokeWidth=2;rounded=0;" edge="1" parent="1">
          <mxGeometry width="50" height="50" relative="1" as="geometry">
            <mxPoint x="520" y="729" as="sourcePoint" />
            <mxPoint x="740" y="729" as="targetPoint" />
          </mxGeometry>
        </mxCell>
        <mxCell id="L8jR0FgZHhtiS3Amrs27-41" value="" style="endArrow=none;dashed=1;html=1;dashPattern=1 3;strokeWidth=2;rounded=0;" edge="1" parent="1">
          <mxGeometry width="50" height="50" relative="1" as="geometry">
            <mxPoint x="520" y="756" as="sourcePoint" />
            <mxPoint x="740" y="756" as="targetPoint" />
          </mxGeometry>
        </mxCell>
        <mxCell id="L8jR0FgZHhtiS3Amrs27-42" value="" style="endArrow=classicThin;startArrow=classicThin;html=1;rounded=0;endFill=1;startFill=1;strokeWidth=0.7;" edge="1" parent="1">
          <mxGeometry width="50" height="50" relative="1" as="geometry">
            <mxPoint x="510" y="760" as="sourcePoint" />
            <mxPoint x="510" y="566" as="targetPoint" />
          </mxGeometry>
        </mxCell>
        <mxCell id="L8jR0FgZHhtiS3Amrs27-44" value="" style="endArrow=openThin;startArrow=openThin;html=1;rounded=0;strokeWidth=0.7;endFill=0;startFill=0;" edge="1" parent="1">
          <mxGeometry width="50" height="50" relative="1" as="geometry">
            <mxPoint x="613.94" y="720" as="sourcePoint" />
            <mxPoint x="644" y="720" as="targetPoint" />
          </mxGeometry>
        </mxCell>
      </root>
    </mxGraphModel>
  </diagram>
</mxfile>
